<?xml version="1.0" encoding="UTF-8"?>
<svg width="18px" height="18px" viewBox="0 0 18 18" version="1.1" xmlns="http://www.w3.org/2000/svg" xmlns:xlink="http://www.w3.org/1999/xlink">
    <g id="Apple-Button" stroke="none" stroke-width="1" fill="none" fill-rule="evenodd">
        <g id="apple-logo" fill="#000000" fill-rule="nonzero">
            <path d="M14.9662,9.3712 C14.9422,7.9402 15.5212,6.9642 16.6952,6.1722 C16.0472,5.2502 15.0642,4.7402 13.7562,4.6362 C12.5232,4.5352 11.1772,5.3102 10.6712,5.3102 C10.1352,5.3102 8.9572,4.6782 8.0142,4.6782 C6.0612,4.7042 4.0002,6.1722 4.0002,9.1632 C4.0002,9.9962 4.1462,10.8582 4.4382,11.7462 C4.8382,12.9522 6.4452,15.9642 8.1282,15.9132 C8.9572,15.8882 9.5442,15.2922 10.6202,15.2922 C11.6562,15.2922 12.1952,15.9132 13.1292,15.9132 C14.8252,15.8882 16.2612,13.1622 16.6362,11.9522 C13.9842,10.7462 14.9662,9.4472 14.9662,9.3712 Z M12.3642,2.9352 C13.2822,1.8312 13.1802,0.8262 13.1542,0.4262 C12.3262,0.4772 11.3702,0.9872 10.7992,1.6082 C10.1772,2.2812 9.8082,3.1152 9.8852,4.6102 C10.7992,4.6872 11.6052,4.1782 12.3642,2.9352 Z" id="Shape"></path>
        </g>
    </g>
</svg>
